# xmcd
#
# Track frame offsets:
#  150
#  11115
#  22308
#  37005
#  51033
#  62255
#  78233
#  92030
#  101113
#  112308
#  123820
#  137015
#
# Disc length: 2005 seconds
#
# Revision: 0
# Processed by: cddbd v1.5.1PL2 Copyright (c) Steve Scherf et al.
# Submitted via: Collectorz.com_Music_Collector 6.11
#
DISCID=a007d30c
DTITLE=Eddie Kirkland - It's The Blues Man!
DYEAR=1993
DGENRE=Blues
TTITLE0=Down On My Knees
TTITLE1=Don't Take My Heart
TTITLE2=Daddy, Please Don't Cry
TTITLE3=Have Mercy On Me
TTITLE4=Saturday Night Stomp
TTITLE5=I'm Gonna Forget You
TTITLE6=I Tried
TTITLE7=Man Of Stone
TTITLE8=I'm Goin' To Keep Loving You
TTITLE9=Train Done Gone
TTITLE10=Something's Gone Wrong In My Life
TTITLE11=Baby You Know It's True
EXTD=
EXTT0=
EXTT1=
EXTT2=
EXTT3=
EXTT4=
EXTT5=
EXTT6=
EXTT7=
EXTT8=
EXTT9=
EXTT10=
EXTT11=
PLAYORDER=
